HIERARCHY
ROOT root
{
	OFFSET 0.000000 0.000000 0.000000
	CHANNELS 6 Xposition Yposition Zposition Zrotation Yrotation Xrotation
	JOINT lhip
	{
		OFFSET 0.058581 -0.082280 -0.017664
		CHANNELS 3 Zrotation Yrotation Xrotation
		JOINT lknee
		{
			OFFSET 0.043451 -0.386469 0.008037
			CHANNELS 3 Zrotation Yrotation Xrotation
			JOINT lankle
			{
				OFFSET -0.014790 -0.426874 -0.037428
				CHANNELS 3 Zrotation Yrotation Xrotation
				JOINT ltoe
				{
					OFFSET 0.041054 -0.060286 0.122042
					CHANNELS 3 Zrotation Yrotation Xrotation
					End Site
					{
						OFFSET 0.000000 0.000000 0.000000
					}
				}
			}
		}
	}
	JOINT rhip
	{
		OFFSET -0.060310 -0.090513 -0.013543
		CHANNELS 3 Zrotation Yrotation Xrotation
		JOINT rknee
		{
			OFFSET -0.043257 -0.383688 -0.004843
			CHANNELS 3 Zrotation Yrotation Xrotation
			JOINT rankle
			{
				OFFSET 0.019056 -0.420046 -0.034562
				CHANNELS 3 Zrotation Yrotation Xrotation
				JOINT rtoe
				{
					OFFSET -0.034840 -0.062106 0.130323
					CHANNELS 3 Zrotation Yrotation Xrotation
					End Site
					{
						OFFSET 0.000000 0.000000 0.000000
					}
				}
			}
		}
	}
	JOINT lowerback
	{
		OFFSET 0.004439 0.124404 -0.038385
		CHANNELS 3 Zrotation Yrotation Xrotation
		JOINT upperback
		{
			OFFSET 0.004488 0.137956 0.026820
			CHANNELS 3 Zrotation Yrotation Xrotation
			JOINT chest
			{
				OFFSET -0.002265 0.056032 0.002855
				CHANNELS 3 Zrotation Yrotation Xrotation
				JOINT lowerneck
				{
					OFFSET -0.013390 0.211636 -0.033468
					CHANNELS 3 Zrotation Yrotation Xrotation
					JOINT upperneck
					{
						OFFSET 0.010113 0.088937 0.050410
						CHANNELS 3 Zrotation Yrotation Xrotation
						End Site
						{
							OFFSET 0.000000 0.000000 0.000000
						}
					}
				}
				JOINT lclavicle
				{
					OFFSET 0.071702 0.114000 -0.018898
					CHANNELS 3 Zrotation Yrotation Xrotation
					JOINT lshoulder
					{
						OFFSET 0.122921 0.045205 -0.019046
						CHANNELS 3 Zrotation Yrotation Xrotation
						JOINT lelbow
						{
							OFFSET 0.255332 -0.015649 -0.022946
							CHANNELS 3 Zrotation Yrotation Xrotation
							JOINT lwrist
							{
								OFFSET 0.265709 0.012698 -0.007375
								CHANNELS 3 Zrotation Yrotation Xrotation
								End Site
								{
									OFFSET 0.000000 0.000000 0.000000
								}
							}
						}
					}
				}
				JOINT rclavicle
				{
					OFFSET -0.082954 0.112472 -0.023707
					CHANNELS 3 Zrotation Yrotation Xrotation
					JOINT rshoulder
					{
						OFFSET -0.113228 0.046853 -0.008472
						CHANNELS 3 Zrotation Yrotation Xrotation
						JOINT relbow
						{
							OFFSET -0.260127 -0.014369 -0.031269
							CHANNELS 3 Zrotation Yrotation Xrotation
							JOINT rwrist
							{
								OFFSET -0.269108 0.006794 -0.006027
								CHANNELS 3 Zrotation Yrotation Xrotation
								End Site
								{
									OFFSET 0.000000 0.000000 0.000000
								}
							}
						}
					}
				}
			}
		}
	}
}
MOTION
Frames: 11
Frame Time: 0.033333
0.654212 0.610095 0.996953 -73.520779 2.136538 88.725400 -2.231173 0.900431 -0.104981 -4.427330 -5.849197 5.289171 7.471779 7.017403 -10.056140 0.000000 -0.000000 0.000000 -8.045722 -0.515832 -12.326547 -1.971328 0.880915 21.860698 6.524091 -5.003708 -7.647743 0.000000 -0.000000 0.000000 -1.841628 2.013203 11.067008 1.827889 0.275232 -2.705009 0.048485 -0.184191 4.129484 4.481598 -3.289490 2.362305 0.099241 -8.781694 10.554712 -21.483498 12.431951 -1.398670 -61.312377 -8.643146 8.779802 13.254437 -28.863448 3.327270 0.238591 -8.236370 -10.631726 25.124371 -5.058456 -3.123258 62.511896 5.864261 16.706582 -18.826465 31.433119 -11.073247 -2.533576 4.747825 -13.650507 
0.654432 0.610310 0.997127 -73.858336 2.405049 88.849297 -1.860925 1.258293 -0.246221 -4.537151 -5.939025 5.307877 6.826123 7.142543 -10.147141 0.000000 -0.000000 0.000000 -7.659576 -0.685350 -12.613774 -1.994978 1.226128 21.929102 6.584906 -4.755764 -7.584643 0.000000 -0.000000 0.000000 -1.355263 1.917735 11.204992 1.677896 0.242982 -2.907717 0.060652 -0.127283 4.437425 3.775232 -3.631577 0.610008 -0.510573 -9.355627 9.640043 -21.579444 12.490363 -1.782427 -61.337714 -8.040087 8.737480 13.075407 -28.922847 3.560271 0.805004 -8.211122 -10.696388 25.088224 -5.279732 -3.553776 62.730133 5.990371 16.973622 -20.189288 36.111160 -13.135335 -3.118966 5.245004 -16.160686 
0.654480 0.610767 0.996656 -74.258440 2.182600 89.879761 -2.185235 0.186226 -1.383107 -4.240670 -3.987485 5.485871 6.600732 6.473570 -10.692957 0.000000 -0.000000 0.000000 -7.827683 -0.146183 -14.131081 -2.369388 0.791864 22.517051 6.613511 -4.383899 -7.657821 0.000000 -0.000000 0.000000 -1.908827 2.041717 9.078796 2.368254 -0.144803 -0.942419 -0.498458 0.011996 4.202255 3.764011 -3.247513 -0.297046 -0.750872 -10.752690 6.854430 -20.463558 12.875625 -2.068762 -62.540384 -7.834865 10.647673 12.359332 -28.021003 5.570321 7.821862 -9.417111 -15.211708 25.401074 -5.555450 -3.995384 63.561931 6.815817 19.992434 -23.897185 41.365136 -14.777730 -8.653438 5.969584 -22.330546 
0.654164 0.612086 0.996899 -74.762242 2.157518 90.005192 -2.221838 0.614328 -1.378167 -4.156897 -3.567692 5.405251 6.545350 6.042585 -10.978949 0.000000 -0.000000 0.000000 -7.749246 0.261433 -14.499837 -2.544369 0.944625 22.661151 6.678412 -4.153829 -7.736589 0.000000 -0.000000 0.000000 -1.974819 1.919098 9.220566 2.406906 -0.204920 -1.235078 -0.651232 -0.027093 4.204356 3.675773 -2.923148 -2.036109 -1.781129 -11.316691 7.053346 -20.066621 12.951262 -2.169614 -62.626220 -7.194221 10.398783 11.846274 -27.896480 6.221859 8.257969 -9.490732 -15.630508 25.054658 -5.333749 -4.508760 64.417111 7.952894 21.306825 -28.376820 48.427956 -19.116856 -10.748061 6.447541 -26.670608 
0.654229 0.612256 0.997034 -75.000541 2.260847 90.191515 -2.120051 0.547207 -1.462837 -4.211760 -3.347730 5.204964 6.429700 6.194696 -10.920375 0.000000 -0.000000 0.000000 -7.651764 0.378708 -14.816476 -2.548120 0.935934 22.813677 6.564468 -3.911116 -7.665506 0.000000 -0.000000 0.000000 -1.782391 2.053401 8.973068 2.393010 -0.180753 -1.145416 -0.700319 -0.129199 4.123733 3.588657 -2.710704 -2.683141 -2.274766 -11.498027 6.994993 -19.924057 12.471927 -2.205953 -62.752444 -6.902748 10.219108 11.827569 -27.606737 6.113789 8.183210 -9.446881 -15.280483 24.496468 -4.901714 -4.760905 64.984194 8.844814 21.857903 -31.978675 51.959558 -22.296891 -11.525434 6.294948 -28.046954 
0.653631 0.611996 0.996757 -74.946476 2.174031 90.249603 -2.279298 0.754097 -1.732866 -4.028100 -3.270440 5.735381 6.355125 5.861551 -10.947393 0.000000 -0.000000 0.000000 -7.901958 0.690817 -15.027809 -2.493587 0.517264 23.174023 6.253095 -3.883250 -7.919633 0.000000 -0.000000 0.000000 -1.737762 2.069224 8.860727 2.408874 -0.176501 -1.127151 -0.791970 -0.253795 4.094674 3.630784 -3.214012 -3.580537 -2.818243 -12.083980 6.633199 -20.045959 12.145069 -2.435189 -62.651921 -6.861220 10.128312 11.605336 -27.188202 6.220923 8.947612 -9.612782 -15.016531 23.999918 -4.259694 -5.319442 65.331642 10.417373 22.550168 -36.226030 55.279150 -26.058548 -13.609453 6.819336 -29.526359 
0.652904 0.611327 0.996059 -74.491215 2.269038 90.382826 -2.444233 0.274429 -2.180940 -3.642190 -3.133308 6.394050 6.098974 5.853312 -11.163479 0.000000 -0.000000 0.000000 -7.952867 0.585913 -15.066660 -2.365297 0.320868 23.339995 6.287503 -3.955015 -8.049487 0.000000 -0.000000 0.000000 -1.196581 2.094068 8.493296 2.213260 -0.389696 -1.068125 -1.135738 -0.308500 4.163446 3.872350 -3.502659 -4.299341 -3.013947 -12.655653 6.698275 -19.779933 11.534566 -2.497452 -62.917446 -7.083156 10.121592 11.759257 -26.657331 6.171056 9.603443 -9.528191 -15.299314 23.233595 -3.649408 -5.600254 65.617498 12.131419 22.865386 -40.175397 57.509669 -29.388285 -14.843269 6.733017 -29.809876 
0.652299 0.612225 0.996409 -74.596323 2.355171 90.028700 -2.160164 0.434527 -1.748417 -3.860730 -3.006935 6.438428 5.877418 5.642274 -11.384118 0.000000 -0.000000 0.000000 -8.083486 1.216369 -14.880552 -2.123229 -0.263054 23.796969 6.136107 -3.710976 -8.406914 0.000000 -0.000000 0.000000 -1.169002 2.070017 9.005227 2.110824 -0.111040 -1.093290 -1.214341 -0.003541 3.737214 4.341241 -4.326892 -4.444780 -3.015694 -13.365431 5.822606 -19.801848 10.859566 -2.599951 -62.809266 -7.169689 10.163102 12.195439 -26.485007 5.524873 9.632200 -10.232001 -15.354511 22.605655 -2.613483 -5.859313 65.666254 13.334169 22.897322 -43.885213 58.028243 -32.742054 -15.406853 7.162252 -29.806281 
0.650693 0.612508 0.996489 -74.104531 2.358327 89.897978 -2.087251 0.374223 -1.569741 -3.895800 -3.283184 6.565542 6.039213 5.395983 -11.481708 0.000000 -0.000000 0.000000 -8.130193 1.191058 -14.812203 -2.013923 -0.637482 24.404664 5.612855 -3.901117 -9.227516 0.000000 -0.000000 0.000000 -1.134053 1.974627 9.197897 1.950120 -0.082194 -1.371437 -1.382896 0.146742 3.552498 4.621625 -4.648752 -4.971847 -2.955557 -13.824593 6.168233 -19.922937 10.623393 -2.887888 -62.592050 -7.353227 10.086154 12.297705 -26.792599 5.242999 9.954883 -10.285685 -15.634134 22.396917 -2.203771 -5.999502 65.133567 14.337988 22.554161 -45.288984 58.254917 -33.503989 -15.913681 7.565549 -29.224561 
0.648733 0.612765 0.996784 -73.482181 2.333588 89.597911 -1.877892 0.339931 -0.857813 -4.237474 -3.810771 6.085604 5.959820 5.410692 -11.391044 0.000000 -0.000000 0.000000 -8.292443 1.059956 -14.625375 -1.629786 -1.603319 25.302736 5.830924 -4.264745 -9.639252 0.000000 -0.000000 0.000000 -0.892597 1.779918 9.810288 1.502236 0.144445 -1.881173 -1.636506 0.397457 3.266794 4.782276 -5.553805 -5.417050 -2.655709 -14.864000 6.867032 -19.811863 10.183033 -3.004749 -62.556956 -7.558113 9.876227 12.466258 -27.700652 4.814688 9.874272 -10.055347 -15.789454 21.834134 -1.507687 -5.742359 64.484587 14.800069 21.639301 -45.516469 57.819448 -33.515521 -16.604180 7.874956 -27.341200 
0.646848 0.612938 0.997400 -73.069463 2.204258 89.389808 -1.947104 0.169555 -0.400694 -4.247556 -3.870786 5.909397 6.075347 5.313644 -11.375820 0.000000 -0.000000 0.000000 -8.360543 0.685323 -14.654455 -1.507966 -2.431732 26.023147 6.195156 -4.775732 -9.533039 0.000000 -0.000000 0.000000 -0.925377 1.942444 9.860953 1.332248 0.121530 -1.737926 -1.906241 0.644261 2.977929 4.826818 -6.409040 -5.529057 -2.322343 -15.705000 7.138682 -20.037338 9.784484 -2.767316 -62.142467 -8.146650 9.827191 12.624852 -28.462634 4.196972 9.494964 -10.647171 -14.952657 21.904346 -1.263000 -5.478582 63.746594 14.451307 20.907836 -45.561383 57.054775 -32.743385 -16.108139 8.669029 -24.947181 
